# xmcd
#
# Track frame offsets:
#	150
#	20387
#	43770
#	56132
#	67511
#	84832
#	101715
#	121019
#	137287
#	161390
#	173357
#	191959
#	212053
#	235033
#	252379
#
# Disc length: 3578 seconds
#
# Revision: 1
# Processed by: cddbd v1.5.2PL0 Copyright (c) Steve Scherf et al.
# Submitted via: audiograbber 1.83.01
#
DISCID=b70df80f
DTITLE=Das Beste des Austro-Pop zur Weihnachtszeit - Das Christkind
DYEAR=2014
DGENRE=Austro-Pop
TTITLE0=Hubert von Goisern und die Alpenkatzen - Heast as net
TTITLE1=Rainhard Fendrich - Weihnachten daham
TTITLE2=Viktor Gernot - Rudolf
TTITLE3=The Real Holy Boys and Herbert Prohaska - Loss es schneien (Let it Snow)
TTITLE4=Seer - Winterschlaf
TTITLE5=Simone - Ein Stern der für dich scheint
TTITLE6=SOLOzuVIERT - Es ist Weihnachtszeit
TTITLE7=Wolfgang Ambros - Frieden für an Moment
TTITLE8=Papermoon - Last Christmas
TTITLE9=Reinhard Fendrich - Wart bis hamlich wird und stü
TTITLE10=Kurt Ostbahn and Die Kombo feat. Birgit Denk - Santa Klaus
TTITLE11=Austria 3 - Du bist wie die Wintersunn (Live)
TTITLE12=Georg Danzer - Wie woa Weihnachten
TTITLE13=Wolfgang Ambros - Weihnachten wie immer
TTITLE14=Seer - Wunschlist'n für Weihnacht'n
EXTD=
EXTT0=
EXTT1=
EXTT2=
EXTT3=
EXTT4=
EXTT5=
EXTT6=
EXTT7=
EXTT8=
EXTT9=
EXTT10=
EXTT11=
EXTT12=
EXTT13=
EXTT14=
PLAYORDER=
